<?xml version="1.0" encoding="UTF-8" standalone="no"?>
<svg
   id="Calque_1"
   data-name="Calque 1"
   viewBox="0 0 4662.39 1193.27"
   version="1.1"
   sodipodi:docname="AgoraLiveLogo NormalPNG.svg"
   inkscape:version="1.2.1 (9c6d41e4, 2022-07-14)"
   xmlns:inkscape="http://www.inkscape.org/namespaces/inkscape"
   xmlns:sodipodi="http://sodipodi.sourceforge.net/DTD/sodipodi-0.dtd"
   xmlns="http://www.w3.org/2000/svg"
   xmlns:svg="http://www.w3.org/2000/svg">
  <sodipodi:namedview
     id="namedview220"
     pagecolor="#ffffff"
     bordercolor="#000000"
     borderopacity="0.25"
     inkscape:showpageshadow="2"
     inkscape:pageopacity="0.0"
     inkscape:pagecheckerboard="0"
     inkscape:deskcolor="#d1d1d1"
     showgrid="false"
     inkscape:zoom="0.12983412"
     inkscape:cx="1991.002"
     inkscape:cy="593.06442"
     inkscape:window-width="1463"
     inkscape:window-height="430"
     inkscape:window-x="196"
     inkscape:window-y="33"
     inkscape:window-maximized="0"
     inkscape:current-layer="Calque_1" />
  <defs
     id="defs191">
    <style
       id="style189">
      .cls-1 {
        fill: #95a3a5;
      }

      .cls-2 {
        fill: #24ebc3;
      }

      .cls-3 {
        fill: #314253;
      }
    </style>
  </defs>
  <g
     id="g2824">
    <rect
       class="cls-2"
       x="3501.28"
       y="403.39"
       width="110.39"
       height="110.39"
       rx="35.63"
       ry="35.63"
       id="rect213" />
    <g
       id="g466">
      <rect
         class="cls-1"
         x="671.39"
         y="206.67"
         width="158.34"
         height="731.15"
         rx="50.19"
         ry="50.19"
         id="rect193" />
      <rect
         class="cls-3"
         x="415.6"
         y="114.21"
         width="158.34"
         height="823.6"
         rx="50.19"
         ry="50.19"
         id="rect195" />
      <rect
         class="cls-2"
         x="159.89"
         y="313.19"
         width="158.34"
         height="624.7"
         rx="50.19"
         ry="50.19"
         id="rect197" />
      <path
         class="cls-3"
         d="M1380.04,831.79h-229.98l-43.87,106.1h-117.42l220.07-534.49h113.2l222.18,534.49h-120.3l-43.87-106.1ZM1343.97,744.75l-77.48-230.97-79.59,230.97h157.07Z"
         id="path199" />
      <path
         class="cls-3"
         d="M1939,557.23v316.95c0,141.53-76.43,206.57-213.67,206.57-72.14,0-142.24-17.72-186.81-52.38l43.87-79.24c32.55,26.16,85.64,43.17,134.43,43.17,77.83,0,111.79-35.37,111.79-103.99v-16.24c-29.04,31.85-70.73,47.39-120.3,47.39-105.39,0-190.33-72.91-190.33-183.93s84.93-183.93,190.33-183.93c53.08,0,96.96,17.72,125.92,54.49v-48.79h104.69l.07-.07ZM1830.02,735.54c0-55.9-41.76-93.37-99.77-93.37s-100.47,37.47-100.47,93.37,42.47,93.37,100.47,93.37,99.77-37.47,99.77-93.37Z"
         id="path201" />
      <path
         class="cls-3"
         d="M1975.07,747.56c0-114.6,88.45-196.02,209.45-196.02s208.75,81.35,208.75,196.02-87.75,196.02-208.75,196.02-209.45-81.35-209.45-196.02ZM2281.41,747.56c0-65.81-41.76-105.39-96.96-105.39s-97.66,39.65-97.66,105.39,42.47,105.39,97.66,105.39,96.96-39.65,96.96-105.39Z"
         id="path203" />
      <path
         class="cls-3"
         d="M2664.88,551.61v101.88c-9.21-.7-16.24-1.41-24.75-1.41-60.82,0-101.18,33.26-101.18,106.1v179.71h-110.39v-380.66h105.39v50.2c26.86-36.77,72.14-55.9,130.92-55.9v.07Z"
         id="path205" />
      <path
         class="cls-3"
         d="M3027.18,720.7v217.19h-103.28v-47.39c-20.53,34.66-60.11,53.08-116.01,53.08-89.15,0-142.24-49.5-142.24-115.31s47.39-113.9,163.47-113.9h87.75c0-47.39-28.26-75.02-87.75-75.02-40.36,0-82.05,13.43-109.68,35.37l-39.58-77.13c41.76-29.74,103.28-45.98,164.17-45.98,116.01,0,183.23,53.79,183.23,169.09h-.07ZM2916.8,817.59v-38.88h-75.72c-51.68,0-67.92,19.12-67.92,44.58,0,27.56,23.34,45.98,62.29,45.98,36.77,0,68.62-17.01,81.35-51.68Z"
         id="path207" />
      <path
         class="cls-2"
         d="M3096.51,403.39h114.6v441.05h248.33v93.37h-362.94V403.39Z"
         id="path209" />
      <rect
         class="cls-2"
         x="3501.28"
         y="557.23"
         width="110.39"
         height="380.66"
         id="rect211" />
      <path
         class="cls-2"
         d="M4100.12,551.92l-165.12,391.34h-117.11l-164.39-391.34h117.11l108.38,266.23,112.02-266.23h109.11Z"
         id="path215" />
      <path
         class="cls-2"
         d="M4478.14,775.33h-283.2c10.44,46.62,50.1,75.15,107.16,75.15,39.66,0,68.19-11.83,93.94-36.18l57.75,62.62c-34.79,39.66-86.98,60.54-154.47,60.54-129.42,0-213.62-81.41-213.62-192.74s85.59-192.74,199.7-192.74,194.83,73.76,194.83,194.14c0,8.35-1.39,20.18-2.09,29.22ZM4193.54,712.01h184.39c-7.65-47.32-43.14-77.93-91.85-77.93s-84.89,29.92-92.54,77.93Z"
         id="path217" />
    </g>
  </g>
</svg>
